<?xml version="1.0" encoding="UTF-8"?>
<svg id="SVGDoc" width="21" height="19" xmlns="http://www.w3.org/2000/svg" version="1.1" xmlns:xlink="http://www.w3.org/1999/xlink" xmlns:avocode="https://avocode.com/" viewBox="0 0 21 19"><defs></defs><desc>Generated with Avocode.</desc><g><g><title>Instagram</title><path d="M14.00564,9.55633c-0.03811,1.98269 -1.75395,3.56817 -3.82393,3.53432c-2.06998,-0.03481 -3.72265,-1.67608 -3.6842,-3.65925c0.03819,-1.98317 1.75335,-3.56865 3.82333,-3.53384c2.06989,0.03386 3.72325,1.67608 3.6848,3.65877zM20.13403,5.72017l-0.15201,7.87306c-0.05819,3.0098 -2.66144,5.41544 -5.8031,5.36346l-8.21846,-0.13685c-3.14166,-0.05198 -5.64998,-2.5425 -5.59204,-5.55229l0.15226,-7.87354c0.05811,-3.00932 2.66118,-5.41544 5.80267,-5.36299l8.21889,0.13638c3.14149,0.05198 5.64981,2.54297 5.59178,5.55277zM15.53746,9.5816c0.05399,-2.79236 -2.27288,-5.10406 -5.18821,-5.15223c-2.9149,-0.04816 -5.3306,2.18391 -5.38442,4.97627c-0.05399,2.79284 2.27374,5.10406 5.18864,5.15223c2.91515,0.04864 5.33026,-2.18391 5.38399,-4.97627zM17.37063,3.97256c0.01356,-0.70238 -0.56957,-1.28126 -1.30257,-1.29366c-0.73274,-0.01192 -1.33776,0.54741 -1.3514,1.24931c-0.01373,0.70238 0.56949,1.28174 1.30239,1.29366c0.73308,0.0124 1.33801,-0.54741 1.35158,-1.24931z" fill="#2b2b2b" fill-opacity="1"></path></g></g></svg>