<?xml version="1.0" encoding="UTF-8"?>
<svg id="SVGDoc" width="23" height="17" xmlns="http://www.w3.org/2000/svg" version="1.1" xmlns:xlink="http://www.w3.org/1999/xlink" xmlns:avocode="https://avocode.com/" viewBox="0 0 23 17"><defs></defs><desc>Generated with Avocode.</desc><g><g><title>Youtube</title><path d="M22.82217,8.42567c0,0 0.02498,3.59583 -0.41971,5.33342c-0.24908,0.95177 -0.9928,1.70565 -1.94132,1.96886c-1.73198,0.47016 -8.67405,0.52691 -8.67405,0.52691c0,0 -6.92422,0.05579 -8.681,-0.40436c-0.95195,-0.24796 -1.70588,-0.99039 -1.96844,-1.93691c-0.46838,-1.71232 -0.49361,-5.32627 -0.49361,-5.32627c0,0 -0.02481,-3.59583 0.41954,-5.33342c0.24891,-0.95129 1.011,-1.72377 1.94098,-1.98698c1.73241,-0.47064 8.67456,-0.52691 8.67456,-0.52691c0,0 6.94216,-0.05627 8.68066,0.40436c0.95186,0.24748 1.70623,0.98991 1.96853,1.93691c0.48709,1.73044 0.49387,5.34439 0.49387,5.34439zM15.2956,8.46859l-5.79632,-3.27539l0.04635,6.64425z" fill="#2b2b2b" fill-opacity="1"></path></g></g></svg>