<?xml version="1.0" encoding="UTF-8"?>
<svg id="SVGDoc" width="99" height="11" xmlns="http://www.w3.org/2000/svg" version="1.1" xmlns:xlink="http://www.w3.org/1999/xlink" xmlns:avocode="https://avocode.com/" viewBox="0 0 99 11"><defs></defs><desc>Generated with Avocode.</desc><g><g><title>Dots</title><path d="M5.30014,-0.03958c2.92726,0 5.30022,2.37274 5.30022,5.30005c0,2.9273 -2.37296,5.30052 -5.30022,5.30052c-2.92717,0 -5.30022,-2.37322 -5.30022,-5.30052c0,-2.9273 2.37305,-5.30005 5.30022,-5.30005zM51.4749,-0.03958c2.92717,0 5.30022,2.37274 5.30022,5.30005c0,2.9273 -2.37305,5.30052 -5.30022,5.30052c-2.92726,0 -5.30022,-2.37322 -5.30022,-5.30052c0,-2.9273 2.37296,-5.30005 5.30022,-5.30005zM93.18553,-0.03958c2.92717,0 5.30022,2.37274 5.30022,5.30005c0,2.9273 -2.37305,5.30052 -5.30022,5.30052c-2.92726,0 -5.30022,-2.37322 -5.30022,-5.30052c0,-2.9273 2.37296,-5.30005 5.30022,-5.30005z" fill="#888888" fill-opacity="1"></path></g></g></svg>