<svg xmlns="http://www.w3.org/2000/svg" width="131" height="17" viewBox="0 0 131 17"><g><g><path fill="#adadad" d="M122.265.428l2.604 5.275 5.821.846-4.212 4.106.994 5.798-5.207-2.737-5.207 2.737.995-5.798-4.213-4.106 5.822-.846z"/></g><g><path fill="#f8b87a" d="M93.204.428l2.603 5.275 5.822.846-4.213 4.106.995 5.798-5.207-2.737-5.207 2.737.994-5.798-4.212-4.106 5.821-.846z"/></g><g><path fill="#f8b87a" d="M62.689.428l2.603 5.275 5.822.846-4.213 4.106.995 5.798-5.207-2.737-5.207 2.737.994-5.798-4.212-4.106 5.821-.846z"/></g><g><path fill="#f8b87a" d="M35.08.428l2.604 5.275 5.821.846-4.212 4.106.994 5.798-5.207-2.737-5.207 2.737.995-5.798-4.213-4.106 5.822-.846z"/></g><g><path fill="#f8b87a" d="M8.925.428l2.603 5.275 5.822.846-4.213 4.106.994 5.798-5.206-2.737-5.207 2.737.994-5.798L.5 6.549l5.822-.846z"/></g></g></svg>